# xmcd
#
# Track frame offsets:
#	150
#	16114
#	30068
#	52182
#	64821
#	78614
#	99423
#	110985
#	118736
#	135009
#	157703
#
# Disc length: 2468 seconds
#
# Revision: 0
# Processed by: cddbd v1.5.2PL0 Copyright (c) Steve Scherf et al.
# Submitted via: audiograbber 1.83.01
#
DISCID=7f09a20b
DTITLE=Savoy Brown - Shake Down
DYEAR=1967
DGENRE=Rock
TTITLE0=Ain't Superstititous
TTITLE1=Let Me Love You Baby
TTITLE2=Black Night
TTITLE3=High Rise
TTITLE4=Rock Me Baby
TTITLE5=I Smell Trouble
TTITLE6=Pretty Woman
TTITLE7=Little Girl
TTITLE8=The Doormouse Rides the Rails
TTITLE9=It's All My Fault
TTITLE10=Shake 'Em on Down
EXTD=
EXTT0=
EXTT1=
EXTT2=
EXTT3=
EXTT4=
EXTT5=
EXTT6=
EXTT7=
EXTT8=
EXTT9=
EXTT10=
PLAYORDER=
